<svg xmlns="http://www.w3.org/2000/svg" width="1400" height="760" viewBox="0 0 1400 760">
  <defs>
    <linearGradient id="bg" x1="0" x2="1">
      <stop offset="0" stop-color="#fff3d6"/>
      <stop offset="0.55" stop-color="#fffaf2"/>
      <stop offset="1" stop-color="#7b3f17"/>
    </linearGradient>
    <filter id="shadow" x="-20%" y="-20%" width="140%" height="140%">
      <feDropShadow dx="0" dy="16" stdDeviation="20" flood-color="#000" flood-opacity=".28"/>
    </filter>
  </defs>
  <rect width="1400" height="760" fill="url(#bg)"/>
  <circle cx="1115" cy="370" r="285" fill="#2c3b1f" opacity=".18"/>
  <ellipse cx="1040" cy="450" rx="330" ry="130" fill="#3a1e0d" opacity=".28"/>
  <ellipse cx="1040" cy="420" rx="270" ry="185" fill="#111" filter="url(#shadow)"/>
  <ellipse cx="1040" cy="410" rx="235" ry="150" fill="#2a170d"/>
  <g transform="rotate(-7 1000 390)">
    <g fill="#d98a24" stroke="#7a3d0d" stroke-width="5">
      <rect x="780" y="280" width="430" height="42" rx="21"/>
      <rect x="810" y="330" width="430" height="42" rx="21"/>
      <rect x="755" y="380" width="430" height="42" rx="21"/>
      <rect x="830" y="430" width="430" height="42" rx="21"/>
      <rect x="780" y="480" width="430" height="42" rx="21"/>
    </g>
    <g fill="#f4b252" opacity=".9">
      <circle cx="830" cy="296" r="5"/><circle cx="950" cy="304" r="5"/><circle cx="1100" cy="295" r="5"/>
      <circle cx="860" cy="346" r="5"/><circle cx="1010" cy="350" r="5"/><circle cx="1170" cy="346" r="5"/>
      <circle cx="815" cy="395" r="5"/><circle cx="960" cy="402" r="5"/><circle cx="1080" cy="394" r="5"/>
      <circle cx="880" cy="446" r="5"/><circle cx="1040" cy="450" r="5"/><circle cx="1190" cy="443" r="5"/>
      <circle cx="825" cy="498" r="5"/><circle cx="975" cy="501" r="5"/><circle cx="1130" cy="493" r="5"/>
    </g>
  </g>
  <circle cx="1210" cy="160" r="70" fill="#fff" opacity=".95"/>
  <circle cx="1210" cy="160" r="45" fill="#f7f0e6"/>
  <circle cx="1220" cy="150" r="32" fill="#fff"/>
  <g fill="#2f6b32" opacity=".8">
    <path d="M1260 80 C1340 20, 1400 55, 1360 120 C1320 95,1290 90,1260 80Z"/>
    <path d="M1235 105 C1310 95, 1375 140, 1350 210 C1305 165,1265 135,1235 105Z"/>
    <path d="M1200 95 C1250 20, 1325 15, 1330 75 C1290 75,1245 83,1200 95Z"/>
  </g>
  <text x="80" y="175" font-family="Arial, sans-serif" font-size="22" font-weight="900" fill="#744000">AUTHENTIC KERALA SNACKS</text>
  <text x="80" y="265" font-family="Georgia, serif" font-size="86" font-weight="700" fill="#111">Traditional</text>
  <text x="80" y="360" font-family="Georgia, serif" font-size="86" font-weight="700" fill="#111">Kuzhalappam</text>
  <text x="82" y="420" font-family="Arial, sans-serif" font-size="34" font-weight="900" fill="#8a3f00">Kerala's Crispy Tea-Time Snack</text>
  <text x="82" y="465" font-family="Arial, sans-serif" font-size="34" font-weight="900" fill="#8a3f00">Loved for Generations</text>
  <circle cx="1225" cy="565" r="95" fill="#fff8ea" stroke="#d9a441" stroke-width="5"/>
  <text x="1175" y="545" font-family="Arial" font-size="20" font-weight="900" fill="#8a3f00">Perfect</text>
  <text x="1192" y="575" font-family="Arial" font-size="20" font-weight="900" fill="#8a3f00">with</text>
  <text x="1185" y="610" font-family="Arial" font-size="30" font-weight="900" fill="#8a3f00">Tea</text>
</svg>