<svg xmlns="http://www.w3.org/2000/svg" width="650" height="430" viewBox="0 0 650 430">
<rect width="650" height="430" rx="28" fill="#fff8ea"/>
<text x="35" y="55" font-family="Arial" font-size="30" font-weight="900" fill="#111">Best with Tea</text>
<ellipse cx="205" cy="285" rx="140" ry="38" fill="#d8b06a"/>
<g fill="#d98a24" stroke="#7a3d0d" stroke-width="4">
<rect x="95" y="210" width="260" height="30" rx="15" transform="rotate(-12 225 225)"/>
<rect x="105" y="245" width="260" height="30" rx="15" transform="rotate(-7 235 260)"/>
<rect x="120" y="280" width="250" height="30" rx="15" transform="rotate(-2 245 295)"/>
</g>
<path d="M390 190 h120 a45 45 0 0 1 0 90 h-120 z" fill="#fff" stroke="#d8b06a" stroke-width="8"/>
<path d="M510 210 h35 a25 25 0 0 1 0 50 h-35" fill="none" stroke="#d8b06a" stroke-width="8"/>
<rect x="395" y="205" width="110" height="60" rx="16" fill="#8a3f00"/>
<path d="M425 140 C390 100,450 80,420 40" fill="none" stroke="#8a3f00" stroke-width="6" opacity=".5"/>
</svg>